<?xml version="1.0" encoding="UTF-8"?>
<svg id="Layer_1" xmlns="http://www.w3.org/2000/svg" version="1.1" viewBox="0 0 72 72">
  <!-- Generator: Adobe Illustrator 29.6.1, SVG Export Plug-In . SVG Version: 2.1.1 Build 9)  -->
  <defs>
    <style>
      .st0 {
        fill: #fff;
        fill-rule: evenodd;
      }
    </style>
  </defs>
  <path class="st0" d="M49.65,20.13v1.89h0v25.41c0,6.06-2.39,11.82-6.67,16.1-4.28,4.28-10.04,6.67-16.1,6.67s-11.82-2.38-16.1-6.67c-4.28-4.28-6.67-10.04-6.67-16.1s2.39-11.82,6.67-16.1c4.28-4.28,10.04-6.67,16.1-6.67h4.23v11.97h-4.23c-2.88,0-5.6,1.13-7.64,3.16-2.03,2.03-3.16,4.76-3.16,7.64s1.13,5.6,3.16,7.64c2.03,2.03,4.76,3.16,7.64,3.16s5.6-1.13,7.64-3.16c2.03-2.03,3.16-4.76,3.16-7.61V1.8h11.92l.6,1.11c1.86,3.44,4.36,6.7,7.46,9.11,2.4,1.86,5.12,3.17,8.12,3.7l2.12.37-2.28,11.54-2.04-.36c-2.43-.43-4.81-1.17-7.05-2.22-2.56-1.21-4.94-2.84-6.89-4.9h0Z"/>
</svg>