<?xml version="1.0" encoding="UTF-8"?>
<svg id="Layer_1" xmlns="http://www.w3.org/2000/svg" version="1.1" viewBox="0 0 72 72">
  <!-- Generator: Adobe Illustrator 29.6.1, SVG Export Plug-In . SVG Version: 2.1.1 Build 9)  -->
  <defs>
    <style>
      .st0 {
        fill: #fff;
      }
    </style>
  </defs>
  <path class="st0" d="M36,1.83c-9.29,0-10.45.04-14.1.21-3.64.17-6.13.74-8.3,1.59-2.25.87-4.16,2.04-6.06,3.94-1.9,1.9-3.07,3.81-3.95,6.05-.85,2.17-1.43,4.66-1.59,8.29-.16,3.65-.21,4.81-.21,14.09s.04,10.44.21,14.09c.17,3.64.74,6.12,1.59,8.29.87,2.25,2.04,4.15,3.94,6.05,1.9,1.9,3.81,3.07,6.06,3.94,2.18.85,4.66,1.42,8.3,1.59,3.65.17,4.81.21,14.1.21s10.45-.04,14.1-.21c3.64-.17,6.13-.74,8.3-1.59,2.25-.87,4.15-2.04,6.05-3.94,1.9-1.9,3.07-3.81,3.95-6.05.84-2.17,1.42-4.66,1.59-8.29.16-3.65.21-4.81.21-14.09s-.04-10.45-.21-14.09c-.17-3.64-.75-6.12-1.59-8.29-.88-2.25-2.04-4.15-3.95-6.05-1.9-1.9-3.8-3.07-6.06-3.94-2.18-.85-4.67-1.42-8.31-1.59-3.65-.17-4.81-.21-14.1-.21h.01ZM32.94,7.98c.91,0,1.93,0,3.07,0,9.13,0,10.21.03,13.82.2,3.33.15,5.14.71,6.35,1.18,1.6.62,2.73,1.36,3.93,2.56,1.2,1.2,1.94,2.34,2.56,3.93.47,1.2,1.03,3.01,1.18,6.34.16,3.6.2,4.68.2,13.81s-.04,10.2-.2,13.81c-.15,3.33-.71,5.14-1.18,6.34-.62,1.59-1.36,2.73-2.56,3.93-1.2,1.2-2.33,1.94-3.93,2.56-1.2.47-3.02,1.03-6.35,1.18-3.61.16-4.69.2-13.82.2s-10.21-.04-13.82-.2c-3.33-.15-5.14-.71-6.35-1.18-1.6-.62-2.74-1.36-3.93-2.56-1.2-1.2-1.94-2.33-2.56-3.93-.47-1.2-1.03-3.01-1.18-6.34-.16-3.6-.2-4.68-.2-13.81s.03-10.2.2-13.81c.15-3.33.71-5.14,1.18-6.35.62-1.59,1.36-2.73,2.56-3.93,1.2-1.2,2.34-1.94,3.93-2.56,1.21-.47,3.02-1.03,6.35-1.18,3.15-.14,4.38-.19,10.75-.19h0ZM54.26,13.66c-2.27,0-4.1,1.83-4.1,4.1s1.84,4.1,4.1,4.1,4.1-1.84,4.1-4.1-1.84-4.1-4.1-4.1h0ZM36,18.45c-9.7,0-17.56,7.86-17.56,17.55s7.86,17.55,17.56,17.55,17.56-7.85,17.56-17.55-7.86-17.55-17.56-17.55h0ZM36,24.61c6.3,0,11.4,5.1,11.4,11.39s-5.1,11.39-11.4,11.39-11.4-5.1-11.4-11.39,5.1-11.39,11.4-11.39h0Z"/>
</svg>